<svg width="13" height="20" viewBox="0 0 13 20" fill="none" xmlns="http://www.w3.org/2000/svg">
<g clip-path="url(#clip0_46:437)">
<path d="M10.625 0H1.875C0.839844 0 0 0.839844 0 1.875V18.125C0 19.1602 0.839844 20 1.875 20H10.625C11.6602 20 12.5 19.1602 12.5 18.125V1.875C12.5 0.839844 11.6602 0 10.625 0ZM6.25 18.75C5.55859 18.75 5 18.1914 5 17.5C5 16.8086 5.55859 16.25 6.25 16.25C6.94141 16.25 7.5 16.8086 7.5 17.5C7.5 18.1914 6.94141 18.75 6.25 18.75ZM10.625 14.5312C10.625 14.7891 10.4141 15 10.1562 15H2.34375C2.08594 15 1.875 14.7891 1.875 14.5312V2.34375C1.875 2.08594 2.08594 1.875 2.34375 1.875H10.1562C10.4141 1.875 10.625 2.08594 10.625 2.34375V14.5312Z" fill="white"/>
</g>
<defs>
<clipPath id="clip0_46:437">
<rect width="12.5" height="20" fill="white"/>
</clipPath>
</defs>
</svg>
