<svg width="20" height="18" viewBox="0 0 20 18" fill="none" xmlns="http://www.w3.org/2000/svg">
<g clip-path="url(#clip0_46:424)">
<path d="M10 0C7.58368 0 5.625 1.92808 5.625 4.30664C5.625 6.22959 8.48438 9.73438 9.57986 11.0065C9.80174 11.2643 10.1986 11.2643 10.4201 11.0065C11.5156 9.73438 14.375 6.22959 14.375 4.30664C14.375 1.92808 12.4163 0 10 0ZM10 5.74219C9.19444 5.74219 8.54167 5.09961 8.54167 4.30664C8.54167 3.51367 9.19444 2.87109 10 2.87109C10.8056 2.87109 11.4583 3.51367 11.4583 4.30664C11.4583 5.09961 10.8056 5.74219 10 5.74219ZM0.698611 7.3811C0.492423 7.46228 0.31567 7.60241 0.191149 7.78341C0.066628 7.96441 4.93822e-05 8.17798 0 8.39658L0 16.9524C0 17.3394 0.396875 17.6039 0.761806 17.4604L5.55556 15.3125V7.3459C5.24861 6.79971 4.99757 6.26787 4.81771 5.75928L0.698611 7.3811ZM10 12.2934C9.51146 12.2934 9.04931 12.0822 8.73229 11.7137C8.04965 10.9208 7.32361 10.0177 6.66667 9.09145V15.3122L13.3333 17.4997V9.0918C12.6764 10.0177 11.9507 10.9211 11.2677 11.7141C10.9507 12.0822 10.4885 12.2934 10 12.2934ZM19.2382 5.5084L14.4444 7.65625V17.5L19.3014 15.5876C19.5076 15.5065 19.6844 15.3664 19.8089 15.1854C19.9334 15.0044 20 14.7908 20 14.5722V6.01631C20 5.62939 19.6031 5.36484 19.2382 5.5084Z" fill="white"/>
</g>
<defs>
<clipPath id="clip0_46:424">
<rect width="20" height="17.5" fill="white"/>
</clipPath>
</defs>
</svg>
