<svg width="20" height="23" viewBox="0 0 20 23" fill="none" xmlns="http://www.w3.org/2000/svg">
<g clip-path="url(#clip0_46:420)">
<path d="M12.1473 8.93366V12.0443C12.1473 12.123 12.0848 12.1843 12.0044 12.1843H11.4955C11.4464 12.1843 11.4017 12.158 11.3794 12.1274L9.92406 10.2024V12.0487C9.92406 12.1274 9.86156 12.1887 9.7812 12.1887H9.27227C9.19191 12.1887 9.12941 12.1274 9.12941 12.0487V8.93804C9.12941 8.85929 9.19191 8.79804 9.27227 8.79804H9.77674C9.82138 8.79804 9.87049 8.81991 9.89281 8.85929L11.3482 10.7843V8.93804C11.3482 8.85929 11.4107 8.79804 11.491 8.79804H12C12.0803 8.79366 12.1473 8.85929 12.1473 8.93366ZM8.48656 8.79366H7.97763C7.89727 8.79366 7.83477 8.85491 7.83477 8.93366V12.0443C7.83477 12.123 7.89727 12.1843 7.97763 12.1843H8.48656C8.56691 12.1843 8.62941 12.123 8.62941 12.0443V8.93366C8.62941 8.85929 8.56691 8.79366 8.48656 8.79366ZM7.25888 11.4012H5.87049V8.93366C5.87049 8.85491 5.80799 8.79366 5.72763 8.79366H5.2187C5.13834 8.79366 5.07584 8.85491 5.07584 8.93366V12.0443C5.07584 12.0837 5.08923 12.1143 5.11602 12.1405C5.14281 12.1624 5.17406 12.1799 5.21423 12.1799H7.25441C7.33477 12.1799 7.39727 12.1187 7.39727 12.0399V11.5412C7.39727 11.4668 7.33477 11.4012 7.25888 11.4012ZM14.8258 8.79366H12.7857C12.7098 8.79366 12.6428 8.85491 12.6428 8.93366V12.0443C12.6428 12.1187 12.7053 12.1843 12.7857 12.1843H14.8258C14.9062 12.1843 14.9687 12.123 14.9687 12.0443V11.5455C14.9687 11.4668 14.9062 11.4055 14.8258 11.4055H13.4375V10.8805H14.8258C14.9062 10.8805 14.9687 10.8193 14.9687 10.7405V10.2374C14.9687 10.1587 14.9062 10.0974 14.8258 10.0974H13.4375V9.57241H14.8258C14.9062 9.57241 14.9687 9.51116 14.9687 9.43241V8.93366C14.9642 8.85929 14.9017 8.79366 14.8258 8.79366ZM20 4.97429V17.4562C19.9955 19.4162 18.3571 21.0043 16.3526 20.9999H3.61602C1.61602 20.9955 -0.00451612 19.3855 -5.18335e-05 17.4255V4.94366C0.00441245 2.98366 1.64727 1.39554 3.64727 1.39991H16.3839C18.3839 1.40429 20.0044 3.00991 20 4.97429ZM17.25 10.338C17.25 7.14429 13.9821 4.54554 9.9687 4.54554C5.95531 4.54554 2.68745 7.14429 2.68745 10.338C2.68745 13.1993 5.27674 15.5968 8.77674 16.0518C9.62941 16.2312 9.5312 16.5374 9.33924 17.6618C9.30799 17.8412 9.19191 18.3662 9.9687 18.0468C10.7455 17.7274 14.1607 15.6274 15.6919 13.9037C16.7455 12.7662 17.25 11.6155 17.25 10.338Z" fill="white"/>
</g>
<defs>
<clipPath id="clip0_46:420">
<rect width="20" height="22.4" fill="white"/>
</clipPath>
</defs>
</svg>
