<svg width="15" height="15" viewBox="0 0 15 15" fill="none" xmlns="http://www.w3.org/2000/svg">
<path d="M14.5154 12.179L9.84138 7.51046L14.5154 2.8239C14.6688 2.67043 14.7906 2.4882 14.8737 2.28761C14.9568 2.08702 14.9997 1.872 14.9998 1.65483C15 1.43765 14.9574 1.22257 14.8745 1.02188C14.7917 0.82118 14.6701 0.638792 14.5169 0.485127C14.3636 0.331463 14.1816 0.20953 13.9813 0.126292C13.781 0.0430538 13.5663 0.000139842 13.3494 3.58536e-07C13.1326 -0.000139125 12.9178 0.0424986 12.7174 0.125479C12.517 0.20846 12.3348 0.330158 12.1814 0.483625L7.50138 5.16418L2.82138 0.483625C2.66793 0.330158 2.4858 0.20846 2.28538 0.125479C2.08496 0.0424986 1.87019 -0.00013914 1.65332 3.41111e-07C1.43645 0.000139823 1.22173 0.0430538 1.02142 0.126292C0.821107 0.20953 0.63913 0.331463 0.485878 0.485127C0.332625 0.638792 0.211097 0.82118 0.128233 1.02188C0.0453688 1.22257 0.00279074 1.43765 0.00293003 1.65483C0.00306932 1.872 0.0459232 2.08702 0.129045 2.28761C0.212167 2.4882 0.333928 2.67043 0.487378 2.8239L5.16138 7.51046L0.487378 12.179C0.177472 12.4889 0.00321137 12.9095 0.00293008 13.3481C0.00264878 13.7867 0.17637 14.2074 0.485878 14.5178C0.795386 14.8281 1.21533 15.0026 1.65332 15.0029C2.09131 15.0032 2.51147 14.8292 2.82138 14.5193L7.50138 9.83872L12.1814 14.5193C12.3348 14.6727 12.517 14.7944 12.7174 14.8774C12.9178 14.9604 13.1326 15.003 13.3494 15.0029C13.5663 15.0028 13.781 14.9598 13.9813 14.8766C14.1816 14.7934 14.3636 14.6714 14.5169 14.5178C14.6701 14.3641 14.7917 14.1817 14.8745 13.981C14.9574 13.7803 15 13.5652 14.9998 13.3481C14.9997 13.1309 14.9568 12.9159 14.8737 12.7153C14.7906 12.5147 14.6688 12.3325 14.5154 12.179Z" fill="white"/>
</svg>
