<svg width="9" height="13" viewBox="0 0 9 13" fill="none" xmlns="http://www.w3.org/2000/svg">
<g clip-path="url(#clip0_25:12)">
<path d="M6.90625 0H1.21875C0.545898 0 0 0.545898 0 1.21875V11.7812C0 12.4541 0.545898 13 1.21875 13H6.90625C7.5791 13 8.125 12.4541 8.125 11.7812V1.21875C8.125 0.545898 7.5791 0 6.90625 0ZM4.0625 12.1875C3.61309 12.1875 3.25 11.8244 3.25 11.375C3.25 10.9256 3.61309 10.5625 4.0625 10.5625C4.51191 10.5625 4.875 10.9256 4.875 11.375C4.875 11.8244 4.51191 12.1875 4.0625 12.1875ZM6.90625 9.44531C6.90625 9.61289 6.76914 9.75 6.60156 9.75H1.52344C1.35586 9.75 1.21875 9.61289 1.21875 9.44531V1.52344C1.21875 1.35586 1.35586 1.21875 1.52344 1.21875H6.60156C6.76914 1.21875 6.90625 1.35586 6.90625 1.52344V9.44531Z" fill="#ED7700"/>
</g>
<defs>
<clipPath id="clip0_25:12">
<rect width="8.125" height="13" fill="white"/>
</clipPath>
</defs>
</svg>
